<svg xmlns="http://www.w3.org/2000/svg" xmlns:xlink="http://www.w3.org/1999/xlink" width="1080" zoomAndPan="magnify" viewBox="0 0 810 809.999993" height="1080" preserveAspectRatio="xMidYMid meet" version="1.0"><defs><clipPath id="5db7256d13"><path d="M 40.21875 19.886719 L 769.96875 19.886719 L 769.96875 790.136719 L 40.21875 790.136719 Z M 40.21875 19.886719 " clip-rule="nonzero"/></clipPath></defs><g clip-path="url(#5db7256d13)"><path fill="#e64444" d="M 645.46875 489.121094 L 164.722656 489.121094 C 96 489.121094 40.21875 433.203125 40.21875 364.652344 C 40.21875 301.183594 87.988281 248.652344 149.621094 241.105469 C 155.015625 149.292969 231.285156 76.425781 324.355469 76.425781 C 334.214844 76.425781 344.230469 77.351562 354.402344 79.046875 C 392.304688 41.304688 444.078125 19.890625 497.855469 19.890625 C 610.03125 19.890625 701.25 111.085938 701.25 223.234375 C 701.25 232.941406 700.476562 242.644531 699.089844 252.351562 C 742.082031 272.839844 769.96875 316.433594 769.96875 364.652344 C 769.96875 433.203125 714.191406 489.121094 645.46875 489.121094 Z M 164.257812 270.988281 C 112.796875 271.144531 71.039062 313.042969 71.039062 364.652344 C 71.039062 416.257812 113.101562 458.3125 164.722656 458.3125 L 645.625 458.3125 C 697.242188 458.3125 739.308594 416.257812 739.308594 364.652344 C 739.308594 325.058594 714.191406 289.628906 676.75 276.382812 C 669.507812 273.761719 665.191406 266.214844 666.734375 258.664062 C 669.199219 246.957031 670.429688 235.097656 670.429688 223.234375 C 670.429688 128.1875 593.082031 50.699219 497.855469 50.699219 C 449.78125 50.699219 403.554688 71.035156 371.042969 106.3125 C 367.34375 110.316406 361.644531 112.164062 356.40625 110.933594 C 345.617188 108.46875 334.832031 107.234375 324.507812 107.234375 C 245 107.234375 180.285156 171.9375 180.285156 251.425781 L 180.285156 252.65625 C 180.285156 253.582031 180.4375 254.351562 180.4375 255.277344 C 180.59375 259.4375 178.898438 263.441406 176.125 266.367188 C 173.195312 269.296875 169.191406 270.988281 165.183594 270.988281 Z M 166.570312 240.179688 Z M 88.910156 780.273438 L 115.875 710.179688 C 118.957031 702.171875 114.953125 693.390625 107.09375 690.308594 C 99.082031 687.226562 90.296875 691.234375 87.214844 699.089844 L 60.25 769.183594 C 57.171875 777.191406 61.175781 785.972656 69.035156 789.054688 C 70.882812 789.824219 72.734375 790.132812 74.582031 790.132812 C 80.589844 790.132812 86.445312 786.433594 88.910156 780.273438 Z M 141.148438 644.25 L 168.113281 574.464844 C 171.195312 566.453125 167.1875 557.671875 159.328125 554.59375 C 151.316406 551.511719 142.535156 555.515625 139.453125 563.375 L 112.640625 633.15625 C 109.558594 641.167969 113.566406 649.949219 121.421875 653.03125 C 123.273438 653.800781 125.121094 654.109375 126.972656 654.109375 C 132.980469 654.109375 138.835938 650.410156 141.148438 644.25 Z M 242.996094 780.273438 L 269.960938 710.179688 C 273.042969 702.171875 269.039062 693.390625 261.179688 690.308594 C 253.167969 687.226562 244.382812 691.234375 241.300781 699.089844 L 214.335938 769.183594 C 211.253906 777.191406 215.261719 785.972656 223.121094 789.054688 C 224.96875 789.824219 226.820312 790.132812 228.667969 790.132812 C 234.832031 790.132812 240.53125 786.433594 242.996094 780.273438 Z M 295.234375 644.25 L 322.199219 574.464844 C 325.277344 566.453125 321.273438 557.671875 313.414062 554.59375 C 305.402344 551.511719 296.621094 555.515625 293.539062 563.375 L 266.726562 633.15625 C 263.644531 641.167969 267.652344 649.949219 275.507812 653.03125 C 277.359375 653.800781 279.207031 654.109375 281.054688 654.109375 C 287.066406 654.109375 292.921875 650.410156 295.234375 644.25 Z M 412.644531 780.273438 L 439.609375 710.179688 C 442.691406 702.171875 438.6875 693.390625 430.828125 690.308594 C 422.816406 687.226562 414.03125 691.234375 410.949219 699.089844 L 383.832031 769.183594 C 380.75 777.191406 384.757812 785.972656 392.613281 789.054688 C 394.464844 789.824219 396.3125 790.132812 398.160156 790.132812 C 404.480469 790.132812 410.335938 786.433594 412.644531 780.273438 Z M 465.035156 644.25 L 491.847656 574.464844 C 494.925781 566.453125 490.921875 557.671875 483.0625 554.59375 C 475.050781 551.511719 466.269531 555.515625 463.1875 563.375 L 436.222656 633.15625 C 433.140625 641.167969 437.144531 649.949219 445.003906 653.03125 C 446.851562 653.800781 448.703125 654.109375 450.550781 654.109375 C 456.867188 654.109375 462.722656 650.410156 465.035156 644.25 Z M 566.730469 780.273438 L 593.695312 710.179688 C 596.777344 702.171875 592.773438 693.390625 584.914062 690.308594 C 576.902344 687.226562 568.117188 691.234375 565.035156 699.089844 L 538.070312 769.183594 C 534.988281 777.191406 538.996094 785.972656 546.855469 789.054688 C 548.703125 789.824219 550.550781 790.132812 552.402344 790.132812 C 558.566406 790.132812 564.421875 786.433594 566.730469 780.273438 Z M 619.121094 644.25 L 645.929688 574.464844 C 649.011719 566.453125 645.007812 557.671875 637.148438 554.59375 C 629.136719 551.511719 620.351562 555.515625 617.273438 563.375 L 590.304688 633.15625 C 587.226562 641.167969 591.230469 649.949219 599.089844 653.03125 C 600.9375 653.800781 602.789062 654.109375 604.636719 654.109375 C 610.953125 654.109375 616.808594 650.410156 619.121094 644.25 Z M 619.121094 644.25 " fill-opacity="1" fill-rule="nonzero"/></g></svg>